<svg width="32" height="27" viewBox="0 0 32 27" fill="none" xmlns="http://www.w3.org/2000/svg">
<g clip-path="url(#clip0_36287_981)" filter="url(#filter0_d_36287_981)">
<path fill-rule="evenodd" clip-rule="evenodd" d="M27.45 5.948C27.616 5.402 27.45 5 26.655 5H24.03C23.362 5 23.054 5.347 22.887 5.73C22.887 5.73 21.552 8.926 19.661 11.002C19.049 11.604 18.771 11.795 18.437 11.795C18.27 11.795 18.019 11.604 18.019 11.057V5.948C18.019 5.292 17.835 5 17.279 5H13.151C12.734 5 12.483 5.304 12.483 5.593C12.483 6.214 13.429 6.358 13.526 8.106V11.904C13.526 12.737 13.373 12.888 13.039 12.888C12.149 12.888 9.984 9.677 8.699 6.003C8.45 5.288 8.198 5 7.527 5H4.9C4.15 5 4 5.347 4 5.73C4 6.412 4.89 9.8 8.145 14.281C10.315 17.341 13.37 19 16.153 19C17.822 19 18.028 18.632 18.028 17.997V15.684C18.028 14.947 18.186 14.8 18.715 14.8C19.105 14.8 19.772 14.992 21.33 16.467C23.11 18.216 23.403 19 24.405 19H27.03C27.78 19 28.156 18.632 27.94 17.904C27.702 17.18 26.852 16.129 25.725 14.882C25.113 14.172 24.195 13.407 23.916 13.024C23.527 12.533 23.638 12.314 23.916 11.877C23.916 11.877 27.116 7.451 27.449 5.948H27.45Z" fill="white"/>
</g>
<defs>
<filter id="filter0_d_36287_981" x="0" y="0" width="32" height="32" filterUnits="userSpaceOnUse" color-interpolation-filters="sRGB">
<feFlood flood-opacity="0" result="BackgroundImageFix"/>
<feColorMatrix in="SourceAlpha" type="matrix" values="0 0 0 0 0 0 0 0 0 0 0 0 0 0 0 0 0 0 127 0" result="hardAlpha"/>
<feOffset dy="4"/>
<feGaussianBlur stdDeviation="2"/>
<feComposite in2="hardAlpha" operator="out"/>
<feColorMatrix type="matrix" values="0 0 0 0 0 0 0 0 0 0 0 0 0 0 0 0 0 0 0.25 0"/>
<feBlend mode="normal" in2="BackgroundImageFix" result="effect1_dropShadow_36287_981"/>
<feBlend mode="normal" in="SourceGraphic" in2="effect1_dropShadow_36287_981" result="shape"/>
</filter>
<clipPath id="clip0_36287_981">
<rect width="24" height="24" fill="white" transform="translate(4)"/>
</clipPath>
</defs>
</svg>
